<svg width="166" height="39" viewBox="0 0 166 39" fill="none" xmlns="http://www.w3.org/2000/svg">
<path d="M154.62 13.6399C156.993 13.6399 159.02 14.0932 160.7 14.9999C162.407 15.9066 163.687 17.1332 164.54 18.6799C165.42 20.2266 165.86 21.9732 165.86 23.9199C165.86 25.8132 165.407 27.5332 164.5 29.0799C163.593 30.6266 162.3 31.8532 160.62 32.7599C158.967 33.6932 157.033 34.1866 154.82 34.2399H154.26C151.913 34.2399 149.887 33.7866 148.18 32.8799C146.5 31.9732 145.22 30.7332 144.34 29.1599C143.46 27.5866 143.02 25.8132 143.02 23.8399C143.02 21.9732 143.473 20.2799 144.38 18.7599C145.287 17.2399 146.567 16.0266 148.22 15.1199C149.873 14.1866 151.807 13.6932 154.02 13.6399H154.62ZM154.58 21.1199C153.86 21.1199 153.26 21.4266 152.78 22.0399C152.327 22.6532 152.1 23.3866 152.1 24.2399C152.1 25.0666 152.273 25.7599 152.62 26.3199C152.993 26.8799 153.567 27.1732 154.34 27.1999H154.46C155.18 27.1999 155.74 26.8799 156.14 26.2399C156.567 25.5999 156.78 24.7866 156.78 23.7999C156.78 23.0266 156.593 22.3999 156.22 21.9199C155.873 21.4132 155.327 21.1466 154.58 21.1199Z" fill="#1E1E1E"/>
<path d="M125.631 18.8801C125.631 17.7867 126.071 16.9067 126.951 16.2401C127.831 15.5734 128.885 15.1067 130.111 14.84C131.338 14.5467 132.498 14.4001 133.591 14.4001C135.431 14.4001 136.885 14.7067 137.951 15.3201C139.018 15.9334 139.791 16.9467 140.271 18.3601C140.778 19.7734 141.031 21.7067 141.031 24.16C141.031 26.9067 140.618 29.2534 139.791 31.2001C138.991 33.1467 137.818 34.2134 136.271 34.4001H135.951C134.858 34.4001 133.951 33.6667 133.231 32.2001C131.285 33.4001 129.085 34.0001 126.631 34.0001C123.725 34.0001 121.205 33.2801 119.071 31.84C116.965 30.4 115.365 28.4534 114.271 26C113.178 23.5467 112.631 20.8134 112.631 17.8001C112.631 14.8667 113.218 12.2134 114.391 9.84005C115.591 7.44005 117.285 5.53338 119.471 4.12005C121.658 2.68005 124.205 1.90672 127.111 1.80005H127.791C129.658 1.80005 131.445 2.09338 133.151 2.68005C134.858 3.24005 136.125 4.00005 136.951 4.96005C137.805 5.97338 138.231 7.05338 138.231 8.20005C138.231 9.10672 137.978 9.89338 137.471 10.5601C137.125 11.0134 136.685 11.3601 136.151 11.6C135.618 11.84 135.058 11.9601 134.471 11.9601C133.778 11.9601 133.205 11.8267 132.751 11.5601C132.138 11.2134 131.431 10.9334 130.631 10.7201C129.831 10.4801 129.071 10.3601 128.351 10.3601C127.311 10.3601 126.365 10.7201 125.511 11.4401C124.658 12.1601 123.978 13.12 123.471 14.32C122.991 15.5201 122.751 16.8001 122.751 18.1601C122.751 20.1601 123.178 21.8667 124.031 23.2801C124.885 24.6667 126.138 25.4134 127.791 25.5201L128.511 25.5601C129.818 25.5601 130.885 25.3734 131.711 25C131.658 24.0667 131.658 23.2534 131.711 22.5601C130.058 22.5334 128.631 22.24 127.431 21.68C126.231 21.1201 125.631 20.1867 125.631 18.8801Z" fill="#1E1E1E"/>
<path d="M75.9342 8.80004C75.9342 7.09337 76.7609 5.85337 78.4142 5.08004C80.0676 4.3067 82.3609 3.92004 85.2942 3.92004C88.2009 3.92004 90.7609 4.34671 92.9742 5.20004C95.2142 6.05337 96.3342 7.70671 96.3342 10.16C96.3342 12.0534 95.6009 14 94.1342 16C92.6942 18 90.7209 19.68 88.2142 21.04C89.9209 20.3467 91.6809 20 93.4942 20C95.0409 20 96.3342 20.2667 97.3742 20.8C98.4409 21.3067 99.0276 22.0134 99.1342 22.92L99.1742 23.4C99.1742 24.84 98.5076 26.1334 97.1742 27.28C95.8676 28.4267 94.2542 29.3467 92.3342 30.04C90.4409 30.7334 88.6142 31.2 86.8542 31.44C85.4676 31.6267 84.3209 31.72 83.4142 31.72C79.4409 31.72 77.0142 30.44 76.1342 27.88C75.9209 27.24 75.8142 26.6134 75.8142 26C75.8142 23.8934 76.8009 21.7734 78.7742 19.64C80.7476 17.5067 83.0942 15.72 85.8142 14.28C83.8942 14.04 82.2542 13.76 80.8942 13.44C79.5342 13.12 78.3609 12.5867 77.3742 11.84C76.4142 11.0934 75.9342 10.08 75.9342 8.80004ZM100.094 18.08C100.308 12.1334 100.828 7.64004 101.654 4.60004C102.481 1.56004 103.748 0.0400391 105.454 0.0400391C107.001 0.0400391 108.108 1.21337 108.774 3.56004C109.441 5.90671 109.774 9.36004 109.774 13.92C109.774 14.8 109.748 16.3067 109.694 18.44C109.481 24.4934 108.961 29.0134 108.134 32C107.334 34.9867 106.068 36.48 104.334 36.48C102.788 36.48 101.681 35.3334 101.014 33.04C100.348 30.7467 100.014 27.3067 100.014 22.72C100.014 21.8134 100.041 20.2667 100.094 18.08Z" fill="#1E1E1E"/>
<path d="M43.077 24.6C43.077 23.7733 43.597 23.0267 44.637 22.36C45.677 21.6667 47.157 21.1067 49.077 20.68C50.997 20.2267 53.237 19.96 55.797 19.88H56.797C58.797 19.88 60.6237 20.0533 62.277 20.4C63.9304 20.7467 65.2637 21.2267 66.277 21.84C67.2904 22.4533 67.8504 23.1467 67.957 23.92C68.117 25.2267 67.3837 26.5067 65.757 27.76C64.1304 29.0133 62.1304 30.0667 59.757 30.92C60.397 30.84 61.0237 30.8 61.637 30.8C62.917 30.8 64.1437 30.92 65.317 31.16C66.517 31.4267 67.5037 31.76 68.277 32.16C69.0504 32.5867 69.4904 33 69.597 33.4L69.677 33.92C69.677 35.2533 68.3837 36.28 65.797 37C63.2104 37.7467 60.0904 38.2533 56.437 38.52C54.597 38.68 52.797 38.76 51.037 38.76C48.6637 38.76 46.8104 38.5333 45.477 38.08C44.1437 37.6533 43.477 36.8933 43.477 35.8C43.477 34.8667 43.9704 33.8667 44.957 32.8C45.9437 31.76 47.3037 30.76 49.037 29.8C50.797 28.84 52.7704 28.0533 54.957 27.44C53.8104 27.6 52.5304 27.68 51.117 27.68C48.8504 27.68 46.9437 27.44 45.397 26.96C43.8504 26.4533 43.077 25.6667 43.077 24.6ZM59.677 10.96C59.677 9.54667 59.8237 8 60.117 6.32C60.4104 4.64 60.9437 3.17333 61.717 1.92C62.517 0.639999 63.5704 0 64.877 0C66.077 0 67.037 0.546666 67.757 1.64C68.477 2.73333 68.957 4.21333 69.197 6.08C70.5304 6.16 71.6104 6.52 72.437 7.16C73.2904 7.77333 73.717 8.62667 73.717 9.72C73.717 10.84 73.2504 11.7067 72.317 12.32C71.4104 12.9333 70.277 13.3067 68.917 13.44C68.5437 15.36 67.957 16.88 67.157 18C66.357 19.12 65.3704 19.68 64.197 19.68C62.2237 19.68 60.8637 18.1867 60.117 15.2C59.317 16.2133 58.1037 17.0533 56.477 17.72C54.8504 18.3867 53.1304 18.88 51.317 19.2C49.5037 19.4933 47.8504 19.64 46.357 19.64C44.0904 19.64 42.2504 19.2 40.837 18.32C39.4237 17.4133 38.597 16.1733 38.357 14.6C38.2504 13.96 38.197 13.2133 38.197 12.36C38.197 11.0533 38.3304 9.76 38.597 8.48C38.8637 7.17333 39.237 6.02667 39.717 5.04C40.3304 3.81333 41.0637 2.81333 41.917 2.04C42.797 1.26666 43.7704 0.879998 44.837 0.879998C45.9837 0.879998 46.9304 1.25333 47.677 2C48.4504 2.72 48.9304 3.65333 49.117 4.8C49.2237 5.36 49.277 6.05333 49.277 6.88C49.277 8.64 48.997 10.24 48.437 11.68C49.397 11.2 50.5304 10.8133 51.837 10.52C53.1437 10.2267 54.4104 10.08 55.637 10.08C57.3437 10.08 58.6904 10.3733 59.677 10.96Z" fill="#1E1E1E"/>
<path d="M7.45985 25.4C7.45985 24.6 8.00651 23.8533 9.09985 23.16C10.2198 22.4667 11.7665 21.9067 13.7398 21.48C15.7398 21.0267 18.0198 20.76 20.5798 20.68H21.5798C23.5798 20.68 25.4465 20.8533 27.1798 21.2C28.9132 21.5467 30.3132 22.04 31.3798 22.68C32.4465 23.2933 33.0332 23.9733 33.1399 24.72C33.2999 25.9733 32.6332 27.08 31.1398 28.04C29.6465 29 27.5798 29.96 24.9398 30.92C25.5798 30.84 26.2065 30.8 26.8198 30.8C28.0998 30.8 29.3265 30.92 30.4998 31.16C31.6998 31.4267 32.6865 31.76 33.4599 32.16C34.2332 32.5867 34.6732 33 34.7799 33.4C34.8332 33.6133 34.8599 33.7867 34.8599 33.92C34.8599 35.2267 33.4998 36.2533 30.7798 37C28.0865 37.7467 24.8998 38.2533 21.2198 38.52C19.3798 38.68 17.5398 38.76 15.6998 38.76C10.4732 38.76 7.85985 37.8 7.85985 35.88C7.85985 34.5467 8.96651 33.1867 11.1798 31.8C13.3932 30.4133 16.2465 29.2267 19.7398 28.24C18.5932 28.4 17.2998 28.48 15.8598 28.48C13.5132 28.48 11.5265 28.24 9.89985 27.76C8.27318 27.2533 7.45985 26.4667 7.45985 25.4ZM0.139847 4.52C0.139847 3.96 0.579847 3.41333 1.45985 2.88C2.36651 2.34667 3.59318 1.88 5.13985 1.48C6.68651 1.05333 8.39318 0.759999 10.2598 0.599999C11.8598 0.466666 13.1398 0.4 14.0998 0.4C15.9132 0.4 17.2998 0.599999 18.2598 0.999999C19.2465 1.37333 19.7932 1.98667 19.8998 2.84C20.0065 3.64 19.0732 4.42666 17.0998 5.2C15.1532 5.94667 12.7265 6.50667 9.81985 6.88C10.0865 7.01333 10.3532 7.38667 10.6198 8C12.4332 7.36 14.2998 7.04 16.2198 7.04C17.3665 7.04 18.2598 7.18667 18.8998 7.48C19.5398 7.77333 19.8598 8.21333 19.8598 8.8C19.8598 9.38666 19.4065 9.92 18.4998 10.4C17.5932 10.8533 16.1665 11.2933 14.2198 11.72C13.3398 11.9333 12.3798 12.08 11.3398 12.16C11.3398 13.0133 11.2332 13.64 11.0198 14.04C11.9265 13.48 13.0465 13.0667 14.3798 12.8C15.7398 12.5067 17.0998 12.36 18.4598 12.36C19.7398 12.36 20.8332 12.48 21.7398 12.72C22.6465 12.96 23.1532 13.28 23.2598 13.68C23.2865 13.7867 23.2998 13.9467 23.2998 14.16C23.2998 15.0933 22.6065 16 21.2198 16.88C19.8332 17.7333 17.9665 18.4667 15.6198 19.08C13.2732 19.6667 10.7398 20.0533 8.01985 20.24L7.17985 20.28C5.57985 20.28 4.23318 20 3.13985 19.44C2.04651 18.8533 1.39318 18.08 1.17985 17.12C1.04651 16.5067 0.979847 15.8933 0.979847 15.28C0.979847 13.52 1.37985 11.84 2.17985 10.24C3.00651 8.61333 4.15318 7.49333 5.61985 6.88C4.63318 6.88 3.71318 6.77333 2.85985 6.56C2.03318 6.32 1.36651 6.02667 0.859847 5.68C0.379847 5.30667 0.139847 4.92 0.139847 4.52ZM20.7398 7.36C20.7932 6.32 21.3532 5.46667 22.4198 4.8C23.4865 4.13333 24.7265 3.73333 26.1398 3.6C27.1532 1.2 28.4998 0 30.1798 0C31.5932 0.0266663 32.6732 0.906667 33.4198 2.64C34.1665 4.37333 34.5398 6.54667 34.5398 9.16C34.5398 11.1867 34.3399 13.0667 33.9398 14.8C33.5398 16.5067 32.9398 17.88 32.1399 18.92C31.3665 19.96 30.4332 20.48 29.3398 20.48C27.8465 20.48 26.7132 19.5733 25.9398 17.76C25.1932 15.9467 24.8332 13.68 24.8598 10.96C21.9798 10.9067 20.6065 9.70667 20.7398 7.36Z" fill="#1E1E1E"/>
</svg>
