<svg width="24" height="24" viewBox="0 0 24 24" fill="none" xmlns="http://www.w3.org/2000/svg">
<mask id="mask0_1193_323" style="mask-type:luminance" maskUnits="userSpaceOnUse" x="2" y="2" width="20" height="20">
<path d="M22 2H2V22H22V2Z" fill="white"/>
</mask>
<g mask="url(#mask0_1193_323)">
<path d="M10.8759 6.0625C11.1343 6.9219 11.1472 7.70318 10.9147 8.40631C10.6563 9.13544 10.217 9.61716 9.59684 9.85156C8.95085 10.0338 8.31777 9.91667 7.69761 9.5C7.07746 9.05727 6.61235 8.40621 6.30227 7.54688C6.04387 6.68748 6.03096 5.9062 6.26352 5.20306C6.52191 4.47393 6.9612 3.99221 7.58136 3.75781C8.22735 3.57555 8.86042 3.70577 9.48057 4.1485C10.1007 4.56517 10.5658 5.20317 10.8759 6.0625ZM5.95344 10.2031C6.3152 10.8541 6.47023 11.4922 6.41856 12.1172C6.34104 12.7161 6.0568 13.1719 5.56584 13.4844C5.07488 13.7448 4.54518 13.7448 3.9767 13.4844C3.40822 13.25 2.93018 12.8073 2.54258 12.1562C2.18083 11.5052 2.0387 10.8672 2.11622 10.2422C2.1679 9.64325 2.43923 9.18753 2.93019 8.875C3.42115 8.6146 3.95086 8.6146 4.51933 8.875C5.0878 9.1094 5.56584 9.55206 5.95344 10.2031ZM4.75189 18.0938C5.44956 16.2708 6.26352 14.8516 7.19375 13.8359C8.09815 12.8464 8.98962 12.1563 9.86818 11.7656C10.7209 11.3489 11.4315 11.1536 12 11.1797C12.5685 11.1536 13.279 11.3489 14.1317 11.7656C15.0103 12.1563 15.9018 12.8464 16.8061 13.8359C17.7364 14.8516 18.5503 16.2708 19.248 18.0938C19.3772 18.4844 19.4418 18.888 19.4418 19.3047V19.3438C19.4418 19.8646 19.2609 20.2943 18.8992 20.6328C18.5633 20.9974 18.1369 21.1797 17.6201 21.1797C17.1808 21.1797 16.7416 21.1276 16.3023 21.0234L12.8914 20.1641C12.2971 20.0078 11.7028 20.0078 11.1085 20.1641L7.69761 21.0234C7.25834 21.1276 6.81908 21.1797 6.3798 21.1797C5.863 21.1797 5.43665 20.9974 5.10073 20.6328C4.73897 20.2943 4.55809 19.8646 4.55809 19.3438V19.3047C4.55809 18.888 4.62269 18.4844 4.75189 18.0938ZM18.4341 13.4844C17.9431 13.1719 17.6588 12.7161 17.5813 12.1172C17.5296 11.4922 17.6847 10.8541 18.0465 10.2031C18.434 9.55206 18.9121 9.1094 19.4806 8.875C20.0491 8.6146 20.5788 8.6146 21.0697 8.875C21.5606 9.18753 21.832 9.64325 21.8837 10.2422C21.9612 10.8672 21.8191 11.5052 21.4573 12.1562C21.0697 12.8073 20.5917 13.25 20.0232 13.4844C19.4547 13.7448 18.925 13.7448 18.4341 13.4844ZM14.093 9.85156C13.4728 9.61716 13.0335 9.13544 12.7751 8.40631C12.5426 7.70318 12.5684 6.9219 12.8527 6.0625C13.1369 5.20317 13.5891 4.56517 14.2092 4.1485C14.8294 3.70577 15.4625 3.57555 16.1085 3.75781C16.7287 3.99221 17.1679 4.47393 17.4263 5.20306C17.6588 5.9062 17.6459 6.68748 17.3875 7.54688C17.0774 8.40621 16.6123 9.05727 15.9922 9.5C15.3721 9.91667 14.739 10.0338 14.093 9.85156Z" fill="black"/>
</g>
</svg>
