<svg width="9" height="15" viewBox="0 0 9 15" fill="none" xmlns="http://www.w3.org/2000/svg">
<path fill-rule="evenodd" clip-rule="evenodd" d="M0.317185 7.99098C0.114092 7.78782 0 7.51232 0 7.22506C0 6.9378 0.114092 6.6623 0.317185 6.45915L6.4456 0.330729C6.54554 0.22726 6.66508 0.144729 6.79725 0.0879524C6.92942 0.031176 7.07157 0.00129087 7.21542 4.09028e-05C7.35926 -0.00120907 7.50191 0.0262014 7.63505 0.0806724C7.76819 0.135143 7.88915 0.215584 7.99086 0.317301C8.09258 0.419018 8.17302 0.539974 8.22749 0.673112C8.28196 0.80625 8.30937 0.948903 8.30812 1.09275C8.30687 1.23659 8.27699 1.37875 8.22021 1.51092C8.16343 1.64309 8.0809 1.76263 7.97744 1.86256L2.61493 7.22506L7.97744 12.5876C8.17477 12.7919 8.28397 13.0655 8.2815 13.3496C8.27903 13.6336 8.1651 13.9053 7.96424 14.1062C7.76338 14.3071 7.49167 14.421 7.20762 14.4235C6.92357 14.4259 6.64992 14.3167 6.4456 14.1194L0.317185 7.99098Z" fill="#9CA3AF"/>
</svg>
