<svg width="24" height="24" viewBox="0 0 24 24" fill="none" xmlns="http://www.w3.org/2000/svg">
<g clip-path="url(#clip0_967_599)">
<path d="M7.64 19.1899C8.94 19.6879 10.394 19.9999 12 19.9999C18.2 19.9999 22.16 15.3399 23.58 13.3199C24.14 12.5399 24.14 11.4599 23.58 10.6799C22.5664 9.23894 21.3467 7.95458 19.96 6.86792L16.656 10.1719C17.0119 11.0778 17.0956 12.0678 16.897 13.0206C16.6984 13.9734 16.226 14.8475 15.5378 15.5357C14.8496 16.2239 13.9755 16.6963 13.0227 16.8949C12.0699 17.0935 11.0799 17.0098 10.174 16.6539L7.64 19.1899ZM11.834 14.9959L12 14.9999C12.408 15 12.8117 14.9169 13.1865 14.7556C13.5613 14.5943 13.8992 14.3583 14.1796 14.0619C14.46 13.7656 14.6771 13.4152 14.8174 13.0321C14.9578 12.649 15.0186 12.2413 14.996 11.8339L11.832 14.9939L11.834 14.9959ZM12.166 9.00392L9.006 12.1679C8.98256 11.7465 9.04829 11.3249 9.1989 10.9307C9.34952 10.5364 9.58162 10.1784 9.88005 9.87997C10.1785 9.58154 10.5365 9.34943 10.9308 9.19882C11.325 9.04821 11.7466 8.98247 12.168 9.00592L12.166 9.00392ZM13.828 7.34392C12.9221 6.98805 11.9321 6.90429 10.9793 7.10293C10.0265 7.30156 9.15244 7.77395 8.46424 8.46215C7.77603 9.15036 7.30365 10.0244 7.10501 10.9772C6.90638 11.93 6.99013 12.92 7.346 13.8259L4.04 17.1339C2.65314 16.0466 1.43346 14.7616 0.42 13.3199C-0.14 12.5399 -0.14 11.4799 0.42 10.6799C1.84 8.65992 5.8 3.99992 12 3.99992C13.606 3.99992 15.06 4.31192 16.36 4.80992L13.828 7.34392ZM11.834 14.9959L12 14.9999C12.408 15 12.8117 14.9169 13.1865 14.7556C13.5613 14.5943 13.8992 14.3583 14.1796 14.0619C14.46 13.7656 14.6771 13.4152 14.8174 13.0321C14.9578 12.649 15.0186 12.2413 14.996 11.8339L11.832 14.9939L11.834 14.9959ZM12.166 9.00392C11.7446 8.98048 11.323 9.04621 10.9288 9.19682C10.5345 9.34743 10.1765 9.57954 9.87805 9.87797C9.57962 10.1764 9.34752 10.5344 9.1969 10.9287C9.04629 11.3229 8.98056 11.7445 9.004 12.1659L12.168 9.00592L12.166 9.00392ZM21.734 3.55192C21.8912 3.39067 21.9831 3.17684 21.9918 2.95179C22.0005 2.72674 21.9255 2.50645 21.7812 2.33353C21.6369 2.16061 21.4336 2.04735 21.2106 2.01565C20.9876 1.98395 20.7608 2.03607 20.574 2.16192L20.448 2.26592L2.268 20.4479C2.11242 20.6093 2.0219 20.8225 2.01379 21.0465C2.00567 21.2705 2.08054 21.4897 2.22403 21.6619C2.36752 21.8342 2.56953 21.9474 2.79135 21.9798C3.01316 22.0123 3.23915 21.9618 3.426 21.8379L3.552 21.7339L21.734 3.55192Z" fill="black"/>
</g>
<defs>
<clipPath id="clip0_967_599">
<rect width="24" height="24" fill="white"/>
</clipPath>
</defs>
</svg>
