<svg width="24" height="24" viewBox="0 0 24 24" fill="none" xmlns="http://www.w3.org/2000/svg">
<path d="M3 19.7143V9.42857C3 9.06666 3.07987 8.72381 3.23962 8.4C3.39937 8.07619 3.6195 7.80952 3.9 7.6L10.65 2.45714C11.0437 2.15238 11.4937 2 12 2C12.5062 2 12.9562 2.15238 13.35 2.45714L20.1 7.6C20.3812 7.80952 20.6017 8.07619 20.7615 8.4C20.9212 8.72381 21.0007 9.06666 21 9.42857V19.7143C21 20.3429 20.7795 20.8811 20.3385 21.3291C19.8975 21.7771 19.368 22.0008 18.75 22H15.375C15.0562 22 14.7892 21.8903 14.574 21.6709C14.3587 21.4514 14.2507 21.1802 14.25 20.8571V15.1429C14.25 14.819 14.142 14.5478 13.926 14.3291C13.71 14.1105 13.443 14.0008 13.125 14H10.875C10.5562 14 10.2892 14.1097 10.074 14.3291C9.85875 14.5486 9.75075 14.8198 9.75 15.1429V20.8571C9.75 21.1809 9.642 21.4526 9.426 21.672C9.21 21.8914 8.943 22.0008 8.625 22H5.25C4.63125 22 4.10175 21.7764 3.6615 21.3291C3.22125 20.8819 3.00075 20.3436 3 19.7143Z" fill="black"/>
</svg>
