<svg width="20" height="20" viewBox="0 0 20 20" fill="none" xmlns="http://www.w3.org/2000/svg">
<path d="M10 10.625C13.285 10.625 16.6558 12.7608 16.8742 17.0517C16.8826 17.2171 16.825 17.379 16.714 17.502C16.6031 17.625 16.4479 17.6989 16.2825 17.7075C14.5492 17.7958 6.52167 17.85 3.71833 17.7075C3.5528 17.6991 3.39738 17.6253 3.28626 17.5023C3.17515 17.3793 3.11744 17.2172 3.12583 17.0517C3.34417 12.7617 6.715 10.625 10 10.625ZM10 3.125C9.1712 3.125 8.37634 3.45424 7.79029 4.04029C7.20424 4.62634 6.875 5.4212 6.875 6.25C6.875 7.0788 7.20424 7.87366 7.79029 8.45971C8.37634 9.04576 9.1712 9.375 10 9.375C10.8288 9.375 11.6237 9.04576 12.2097 8.45971C12.7958 7.87366 13.125 7.0788 13.125 6.25C13.125 5.4212 12.7958 4.62634 12.2097 4.04029C11.6237 3.45424 10.8288 3.125 10 3.125Z" fill="#A7A7A7"/>
</svg>
