<svg width="24" height="24" viewBox="0 0 24 24" fill="none" xmlns="http://www.w3.org/2000/svg">
<g clip-path="url(#clip0_967_566)">
<path d="M12 15C13.6569 15 15 13.6569 15 12C15 10.3431 13.6569 9 12 9C10.3431 9 9 10.3431 9 12C9 13.6569 10.3431 15 12 15Z" fill="black"/>
<path d="M23.58 10.68C22.16 8.66 18.2 4 12 4C5.8 4 1.84 8.66 0.42 10.68C-0.14 11.48 -0.14 12.54 0.42 13.32C1.84 15.34 5.8 20 12 20C18.2 20 22.16 15.34 23.58 13.32C24.14 12.54 24.14 11.46 23.58 10.68ZM12 17C10.6739 17 9.40215 16.4732 8.46447 15.5355C7.52678 14.5979 7 13.3261 7 12C7 10.6739 7.52678 9.40215 8.46447 8.46447C9.40215 7.52678 10.6739 7 12 7C13.3261 7 14.5979 7.52678 15.5355 8.46447C16.4732 9.40215 17 10.6739 17 12C17 13.3261 16.4732 14.5979 15.5355 15.5355C14.5979 16.4732 13.3261 17 12 17Z" fill="black"/>
</g>
<defs>
<clipPath id="clip0_967_566">
<rect width="24" height="24" fill="white"/>
</clipPath>
</defs>
</svg>
